<svg width="64" height="64" viewBox="0 0 64 64" fill="none" xmlns="http://www.w3.org/2000/svg">
  <rect width="64" height="64" rx="16" fill="#2563EB"/>
  <path d="M18 30C18 24.4772 22.4772 20 28 20H36C41.5228 20 46 24.4772 46 30V38C46 43.5228 41.5228 48 36 48H28C22.4772 48 18 43.5228 18 38V30Z" fill="white"/>
  <path d="M23 26.5C23 25.1193 24.1193 24 25.5 24C26.8807 24 28 25.1193 28 26.5C28 27.8807 26.8807 29 25.5 29C24.1193 29 23 27.8807 23 26.5Z" fill="#2563EB"/>
  <path d="M35.5 24C34.1193 24 33 25.1193 33 26.5C33 27.8807 34.1193 29 35.5 29C36.8807 29 38 27.8807 38 26.5C38 25.1193 36.8807 24 35.5 24Z" fill="#2563EB"/>
  <path d="M26 36C26 34.3431 27.3431 33 29 33H35C36.6569 33 38 34.3431 38 36V37C38 38.6569 36.6569 40 35 40H29C27.3431 40 26 38.6569 26 37V36Z" fill="#2563EB"/>
  <path d="M20 32C20 31.4477 20.4477 31 21 31H43C43.5523 31 44 31.4477 44 32V33C44 33.5523 43.5523 34 43 34H21C20.4477 34 20 33.5523 20 33V32Z" fill="#2563EB"/>
  <path d="M43 36.5C43 35.1193 41.8807 34 40.5 34C39.1193 34 38 35.1193 38 36.5C38 37.8807 39.1193 39 40.5 39C41.8807 39 43 37.8807 43 36.5Z" fill="#2563EB"/>
</svg>
